<?xml version="1.0" encoding="utf-8"?><svg version="1.1" id="Layer_1" xmlns="http://www.w3.org/2000/svg" xmlns:xlink="http://www.w3.org/1999/xlink" x="0px" y="0px" viewBox="0 0 122.88 64.77" style="enable-background:new 0 0 122.88 64.77" xml:space="preserve"><style type="text/css"><![CDATA[
	.st0{fill:#00BCEB;}
]]></style><g><path class="st0" d="M60.58,43.33c-0.16-0.04-2.63-0.68-5.25-0.68c-4.97,0-7.96,2.68-7.96,6.68c0,3.54,2.5,5.3,5.5,6.25 c0.33,0.11,0.82,0.26,1.15,0.37c1.34,0.42,2.4,1.05,2.4,2.13c0,1.21-1.23,1.99-3.91,1.99c-2.36,0-4.61-0.67-5.09-0.79v4.91 c0.27,0.06,2.95,0.58,5.82,0.58c4.12,0,8.84-1.8,8.84-7.16c0-2.6-1.59-5-5.09-6.11l-1.49-0.47c-0.89-0.28-2.47-0.73-2.47-2.03 c0-1.03,1.17-1.75,3.33-1.75c1.86,0,4.13,0.63,4.21,0.65V43.33L60.58,43.33z M106.11,53.71c0,3.11-2.38,5.62-5.57,5.62 c-3.2,0-5.57-2.51-5.57-5.62c0-3.1,2.37-5.62,5.57-5.62C103.73,48.09,106.11,50.61,106.11,53.71L106.11,53.71L106.11,53.71z M100.54,42.66c-6.57,0-11.28,4.95-11.28,11.05c0,6.11,4.71,11.06,11.28,11.06s11.28-4.95,11.28-11.06 C111.82,47.61,107.1,42.66,100.54,42.66L100.54,42.66L100.54,42.66z M40.14,64.39h-5.39V43.03h5.39V64.39L40.14,64.39z M40.14,64.39L40.14,64.39L40.14,64.39L40.14,64.39z"/><path class="st0" d="M27.35,43.42c-0.51-0.15-2.38-0.77-4.91-0.77c-6.56,0-11.37,4.67-11.37,11.05c0,6.88,5.31,11.06,11.37,11.06 c2.41,0,4.24-0.57,4.91-0.76v-5.73c-0.23,0.13-1.99,1.13-4.53,1.13c-3.59,0-5.91-2.53-5.91-5.7c0-3.27,2.42-5.7,5.91-5.7 c2.58,0,4.31,1.03,4.53,1.14V43.42L27.35,43.42z M27.35,43.42L27.35,43.42L27.35,43.42L27.35,43.42z"/><path class="st0" d="M83.59,43.42c-0.51-0.15-2.38-0.77-4.91-0.77c-6.56,0-11.37,4.67-11.37,11.05c0,6.88,5.31,11.06,11.37,11.06 c2.41,0,4.24-0.57,4.91-0.76v-5.73c-0.23,0.13-1.99,1.13-4.53,1.13c-3.59,0-5.9-2.53-5.9-5.7c0-3.27,2.41-5.7,5.9-5.7 c2.58,0,4.31,1.03,4.53,1.14V43.42L83.59,43.42z M83.59,43.42L83.59,43.42L83.59,43.42L83.59,43.42z"/><path class="st0" d="M34.74,2.67c0-1.47-1.2-2.67-2.68-2.67c-1.47,0-2.67,1.19-2.67,2.67v28.35c0,1.48,1.2,2.67,2.67,2.67 c1.47,0,2.68-1.19,2.68-2.67V2.67L34.74,2.67z M20.04,12.73c0-1.47-1.2-2.67-2.67-2.67c-1.47,0-2.67,1.2-2.67,2.67v12.96 c0,1.48,1.2,2.67,2.67,2.67c1.47,0,2.67-1.19,2.67-2.67V12.73L20.04,12.73z M5.35,20.09c0-1.47-1.2-2.66-2.67-2.66 C1.2,17.42,0,18.62,0,20.09v5.61c0,1.48,1.2,2.67,2.67,2.67c1.47,0,2.68-1.19,2.68-2.67L5.35,20.09L5.35,20.09z M5.35,20.09 L5.35,20.09L5.35,20.09L5.35,20.09z"/><path class="st0" d="M29.39,2.67c0-1.47,1.2-2.67,2.68-2.67c1.47,0,2.68,1.19,2.68,2.67v28.35c0,1.48-1.2,2.67-2.68,2.67 c-1.47,0-2.68-1.19-2.68-2.67V2.67L29.39,2.67z M44.08,12.73c0-1.47,1.2-2.67,2.67-2.67s2.68,1.2,2.68,2.67v12.96 c0,1.48-1.2,2.67-2.68,2.67s-2.67-1.19-2.67-2.67V12.73L44.08,12.73z M58.77,20.09c0-1.47,1.2-2.66,2.67-2.66 c1.47,0,2.67,1.19,2.67,2.66v5.61c0,1.48-1.2,2.67-2.67,2.67c-1.47,0-2.67-1.19-2.67-2.67V20.09L58.77,20.09z M58.77,20.09 L58.77,20.09L58.77,20.09L58.77,20.09z"/><path class="st0" d="M88.14,2.67c0-1.47,1.2-2.67,2.68-2.67s2.68,1.19,2.68,2.67v28.35c0,1.48-1.2,2.67-2.68,2.67 s-2.68-1.19-2.68-2.67V2.67L88.14,2.67z M102.84,12.73c0-1.47,1.2-2.67,2.67-2.67c1.47,0,2.68,1.2,2.68,2.67v12.96 c0,1.48-1.2,2.67-2.68,2.67c-1.47,0-2.67-1.19-2.67-2.67V12.73L102.84,12.73z M117.53,20.09c0-1.47,1.2-2.66,2.67-2.66 s2.68,1.19,2.68,2.66v5.61c0,1.48-1.2,2.67-2.68,2.67s-2.67-1.19-2.67-2.67V20.09L117.53,20.09z M117.53,20.09L117.53,20.09 L117.53,20.09L117.53,20.09z"/><path class="st0" d="M93.49,2.67c0-1.47-1.2-2.67-2.68-2.67s-2.68,1.19-2.68,2.67v28.35c0,1.48,1.2,2.67,2.68,2.67 s2.68-1.19,2.68-2.67V2.67L93.49,2.67z M78.8,12.73c0-1.47-1.2-2.67-2.68-2.67s-2.68,1.2-2.68,2.67v12.96 c0,1.48,1.2,2.67,2.68,2.67s2.68-1.19,2.68-2.67V12.73L78.8,12.73z M64.11,20.09c0-1.47-1.2-2.66-2.68-2.66s-2.68,1.19-2.68,2.66 v5.61c0,1.48,1.2,2.67,2.68,2.67c1.47,0,2.68-1.19,2.68-2.67V20.09L64.11,20.09z M64.11,20.09L64.11,20.09L64.11,20.09L64.11,20.09 z"/></g></svg>