<?xml version="1.0" encoding="UTF-8"?>
<!DOCTYPE svg PUBLIC "-//W3C//DTD SVG 1.1//EN" "http://www.w3.org/Graphics/SVG/1.1/DTD/svg11.dtd">
<svg xmlns="http://www.w3.org/2000/svg" version="1.1" width="401px" height="400px" style="shape-rendering:geometricPrecision; text-rendering:geometricPrecision; image-rendering:optimizeQuality; fill-rule:evenodd; clip-rule:evenodd" xmlns:xlink="http://www.w3.org/1999/xlink">
<g><path style="opacity:1" fill="#e25544" d="M 72.5,-0.5 C 157.167,-0.5 241.833,-0.5 326.5,-0.5C 353.202,4.34339 373.535,18.3434 387.5,41.5C 387.427,43.0269 388.094,44.0269 389.5,44.5C 394.331,53.1591 397.498,62.4924 399,72.5C 399.984,159.197 399.651,245.863 398,332.5C 387.798,369.54 363.964,391.873 326.5,399.5C 241.833,399.5 157.167,399.5 72.5,399.5C 32.5,390.833 8.16667,366.5 -0.5,326.5C -0.5,241.833 -0.5,157.167 -0.5,72.5C 2.64564,53.2074 11.3123,36.874 25.5,23.5C 28.0892,22.5806 30.0892,20.914 31.5,18.5C 36.4419,13.7472 42.1086,9.91382 48.5,7C 56.4012,3.75258 64.4012,1.25258 72.5,-0.5 Z"/></g>
<g><path style="opacity:0.937" fill="#f19385" d="M 31.5,18.5 C 30.0892,20.914 28.0892,22.5806 25.5,23.5C 26.9108,21.086 28.9108,19.4194 31.5,18.5 Z"/></g>
<g><path style="opacity:0.502" fill="#f4b0a7" d="M 387.5,41.5 C 388.906,41.9731 389.573,42.9731 389.5,44.5C 388.094,44.0269 387.427,43.0269 387.5,41.5 Z"/></g>
<g><path style="opacity:1" fill="#fefdfd" d="M 117.5,193.5 C 117.44,192.957 117.107,192.624 116.5,192.5C 115.5,215.49 115.167,238.49 115.5,261.5C 106.5,261.5 97.5,261.5 88.5,261.5C 88.5,221.833 88.5,182.167 88.5,142.5C 97.8393,142.334 107.173,142.5 116.5,143C 126.969,160.299 137.635,177.466 148.5,194.5C 159.403,177.705 170.07,160.705 180.5,143.5C 189.81,142.502 199.143,142.168 208.5,142.5C 208.5,182.167 208.5,221.833 208.5,261.5C 199.5,261.5 190.5,261.5 181.5,261.5C 181.667,238.498 181.5,215.498 181,192.5C 171.251,209 161.251,225.334 151,241.5C 148.415,242.885 146.415,242.218 145,239.5C 135.559,224.277 126.392,208.943 117.5,193.5 Z"/></g>
<g><path style="opacity:1" fill="#fefdfc" d="M 249.5,174.5 C 259.619,173.428 269.286,174.928 278.5,179C 280.609,180.141 282.442,181.641 284,183.5C 284.497,181.19 284.663,178.857 284.5,176.5C 293.167,176.5 301.833,176.5 310.5,176.5C 310.5,204.833 310.5,233.167 310.5,261.5C 301.833,261.5 293.167,261.5 284.5,261.5C 284.663,259.143 284.497,256.81 284,254.5C 272.939,263.503 260.439,266.003 246.5,262C 227.645,253.642 218.311,239.142 218.5,218.5C 219.03,196.728 229.364,182.061 249.5,174.5 Z"/></g>
<g><path style="opacity:1" fill="#f5bfb8" d="M 117.5,193.5 C 116.833,216.167 116.167,238.833 115.5,261.5C 115.167,238.49 115.5,215.49 116.5,192.5C 117.107,192.624 117.44,192.957 117.5,193.5 Z"/></g>
<g><path style="opacity:1" fill="#e25645" d="M 257.5,198.5 C 268.633,196.391 277.133,200.057 283,209.5C 287.351,230.481 278.851,240.314 257.5,239C 244.615,232.318 240.782,222.152 246,208.5C 248.794,203.866 252.627,200.533 257.5,198.5 Z"/></g>
</svg>
