<?xml version="1.0" encoding="UTF-8"?>
<!DOCTYPE svg PUBLIC "-//W3C//DTD SVG 1.1//EN" "http://www.w3.org/Graphics/SVG/1.1/DTD/svg11.dtd">
<svg xmlns="http://www.w3.org/2000/svg" version="1.1" width="220px" height="224px" style="shape-rendering:geometricPrecision; text-rendering:geometricPrecision; image-rendering:optimizeQuality; fill-rule:evenodd; clip-rule:evenodd" xmlns:xlink="http://www.w3.org/1999/xlink">
<g><path style="opacity:1" fill="#fcd322" d="M 116.5,-0.5 C 118.5,-0.5 120.5,-0.5 122.5,-0.5C 124.831,4.82888 127.164,10.1622 129.5,15.5C 129.427,17.0269 130.094,18.0269 131.5,18.5C 131.427,20.0269 132.094,21.0269 133.5,21.5C 133.427,23.0269 134.094,24.0269 135.5,24.5C 136.338,24.8417 136.672,25.5084 136.5,26.5C 136.427,28.0269 137.094,29.0269 138.5,29.5C 138.427,31.0269 139.094,32.0269 140.5,32.5C 141.534,34.817 140.534,35.817 137.5,35.5C 135.447,35.4021 133.78,36.0687 132.5,37.5C 130.447,37.4021 128.78,38.0687 127.5,39.5C 124.759,39.7073 122.426,40.7073 120.5,42.5C 116.818,45.0078 112.818,47.0078 108.5,48.5C 106.326,48.7497 104.659,49.7497 103.5,51.5C 103.158,52.3382 102.492,52.6716 101.5,52.5C 99.9731,52.427 98.9731,53.0937 98.5,54.5C 94.3782,57.734 90.0449,60.734 85.5,63.5C 83.9731,63.427 82.9731,64.0937 82.5,65.5C 82.5,66.1667 82.1667,66.5 81.5,66.5C 79.9731,66.427 78.9731,67.0937 78.5,68.5C 77.5,70.1667 76.1667,71.5 74.5,72.5C 72.5956,72.7376 71.2623,73.7376 70.5,75.5C 70.5,76.1667 70.1667,76.5 69.5,76.5C 65.7657,79.2311 62.7657,82.5644 60.5,86.5C 59.8333,87.8333 58.8333,88.8333 57.5,89.5C 56.0937,89.9731 55.427,90.9731 55.5,92.5C 55.1667,93.5 54.5,94.1667 53.5,94.5C 52.0937,94.9731 51.427,95.9731 51.5,97.5C 51.5,98.1667 51.1667,98.5 50.5,98.5C 49.0937,98.9731 48.427,99.9731 48.5,101.5C 47.0937,101.973 46.427,102.973 46.5,104.5C 44.4031,105.879 44.0698,107.545 45.5,109.5C 46.3382,109.842 46.6716,110.508 46.5,111.5C 46.427,113.027 47.0937,114.027 48.5,114.5C 49.3382,114.842 49.6716,115.508 49.5,116.5C 49.427,118.027 50.0937,119.027 51.5,119.5C 51.427,121.027 52.0937,122.027 53.5,122.5C 53.427,124.027 54.0937,125.027 55.5,125.5C 55.5,126.167 55.5,126.833 55.5,127.5C 45.3388,136.828 35.6721,146.661 26.5,157C 25.552,157.483 24.552,157.649 23.5,157.5C 23.573,155.973 22.9063,154.973 21.5,154.5C 21.4456,152.368 20.4456,151.035 18.5,150.5C 18.573,148.973 17.9063,147.973 16.5,147.5C 16.1298,144.733 14.7964,142.733 12.5,141.5C 7.62385,133.081 3.29051,124.414 -0.5,115.5C -0.5,112.833 -0.5,110.167 -0.5,107.5C 1.52548,102.444 3.85881,97.4442 6.5,92.5C 7.90632,92.0269 8.57298,91.0269 8.5,89.5C 8.99249,87.1815 9.99249,85.1815 11.5,83.5C 12.9063,83.0269 13.573,82.0269 13.5,80.5C 13.3284,79.5084 13.6618,78.8417 14.5,78.5C 15.9063,78.0269 16.573,77.0269 16.5,75.5C 17.9063,75.0269 18.573,74.0269 18.5,72.5C 20.2624,71.7377 21.2624,70.4044 21.5,68.5C 23.2624,67.7377 24.2624,66.4044 24.5,64.5C 26.914,63.0892 28.5806,61.0892 29.5,58.5C 32.5725,56.4309 34.9059,53.7642 36.5,50.5C 36.8333,49.5 37.5,48.8333 38.5,48.5C 42.7706,45.8991 46.4372,42.5658 49.5,38.5C 51.7488,37.9202 53.4154,36.5869 54.5,34.5C 56.7488,33.9202 58.4154,32.5869 59.5,30.5C 61.0269,30.573 62.0269,29.9063 62.5,28.5C 64.4044,28.2624 65.7377,27.2624 66.5,25.5C 68.0269,25.573 69.0269,24.9063 69.5,23.5C 71.0269,23.573 72.0269,22.9063 72.5,21.5C 72.8417,20.6618 73.5084,20.3284 74.5,20.5C 76.0269,20.573 77.0269,19.9063 77.5,18.5C 77.8417,17.6618 78.5084,17.3284 79.5,17.5C 81.674,17.2503 83.3406,16.2503 84.5,14.5C 88.1822,11.9922 92.1822,9.99222 96.5,8.5C 98.5529,8.59794 100.22,7.93127 101.5,6.5C 106.415,3.97337 111.415,1.64003 116.5,-0.5 Z"/></g>
<g><path style="opacity:0.055" fill="#fff9e2" d="M 101.5,6.5 C 100.22,7.93127 98.5529,8.59794 96.5,8.5C 97.7804,7.06873 99.4471,6.40206 101.5,6.5 Z"/></g>
<g><path style="opacity:0.09" fill="#fff9e0" d="M 84.5,14.5 C 83.3406,16.2503 81.674,17.2503 79.5,17.5C 80.6594,15.7497 82.326,14.7497 84.5,14.5 Z"/></g>
<g><path style="opacity:0.306" fill="#fff1bc" d="M 129.5,15.5 C 130.906,15.9731 131.573,16.9731 131.5,18.5C 130.094,18.0269 129.427,17.0269 129.5,15.5 Z"/></g>
<g><path style="opacity:0.42" fill="#fff4c8" d="M 77.5,18.5 C 77.0269,19.9063 76.0269,20.573 74.5,20.5C 74.9731,19.0937 75.9731,18.427 77.5,18.5 Z"/></g>
<g><path style="opacity:0.243" fill="#fff3c9" d="M 131.5,18.5 C 132.906,18.9731 133.573,19.9731 133.5,21.5C 132.094,21.0269 131.427,20.0269 131.5,18.5 Z"/></g>
<g><path style="opacity:0.376" fill="#fff6ce" d="M 72.5,21.5 C 72.0269,22.9063 71.0269,23.573 69.5,23.5C 69.9731,22.0937 70.9731,21.427 72.5,21.5 Z"/></g>
<g><path style="opacity:0.22" fill="#fff5cf" d="M 133.5,21.5 C 134.906,21.9731 135.573,22.9731 135.5,24.5C 134.094,24.0269 133.427,23.0269 133.5,21.5 Z"/></g>
<g><path style="opacity:0.412" fill="#fff5c8" d="M 69.5,23.5 C 69.0269,24.9063 68.0269,25.573 66.5,25.5C 66.9731,24.0937 67.9731,23.427 69.5,23.5 Z"/></g>
<g><path style="opacity:0.396" fill="#fff3bc" d="M 66.5,25.5 C 65.7377,27.2624 64.4044,28.2624 62.5,28.5C 63.2623,26.7376 64.5956,25.7376 66.5,25.5 Z"/></g>
<g><path style="opacity:0.349" fill="#ffefb4" d="M 136.5,26.5 C 137.906,26.9731 138.573,27.9731 138.5,29.5C 137.094,29.0269 136.427,28.0269 136.5,26.5 Z"/></g>
<g><path style="opacity:0.533" fill="#fff1b3" d="M 62.5,28.5 C 62.0269,29.9063 61.0269,30.573 59.5,30.5C 59.9731,29.0937 60.9731,28.427 62.5,28.5 Z"/></g>
<g><path style="opacity:0.255" fill="#fff2c4" d="M 138.5,29.5 C 139.906,29.9731 140.573,30.9731 140.5,32.5C 139.094,32.0269 138.427,31.0269 138.5,29.5 Z"/></g>
<g><path style="opacity:0.702" fill="#ffeea5" d="M 59.5,30.5 C 58.4154,32.5869 56.7488,33.9202 54.5,34.5C 55.5846,32.4131 57.2512,31.0798 59.5,30.5 Z"/></g>
<g><path style="opacity:0.082" fill="#fff7d9" d="M 137.5,35.5 C 136.22,36.9313 134.553,37.5979 132.5,37.5C 133.78,36.0687 135.447,35.4021 137.5,35.5 Z"/></g>
<g><path style="opacity:0.686" fill="#ffeda1" d="M 54.5,34.5 C 53.4154,36.5869 51.7488,37.9202 49.5,38.5C 50.5846,36.4131 52.2512,35.0798 54.5,34.5 Z"/></g>
<g><path style="opacity:0.067" fill="#fff8df" d="M 132.5,37.5 C 131.22,38.9313 129.553,39.5979 127.5,39.5C 128.78,38.0687 130.447,37.4021 132.5,37.5 Z"/></g>
<g><path style="opacity:0.11" fill="#fff7d9" d="M 127.5,39.5 C 125.574,41.2927 123.241,42.2927 120.5,42.5C 122.426,40.7073 124.759,39.7073 127.5,39.5 Z"/></g>
<g><path style="opacity:0.725" fill="#ffec9c" d="M 49.5,38.5 C 46.4372,42.5658 42.7706,45.8991 38.5,48.5C 41.5628,44.4342 45.2294,41.1009 49.5,38.5 Z"/></g>
<g><path style="opacity:0.09" fill="#fff8dd" d="M 108.5,48.5 C 107.341,50.2503 105.674,51.2503 103.5,51.5C 104.659,49.7497 106.326,48.7497 108.5,48.5 Z"/></g>
<g><path style="opacity:0.129" fill="#fffaea" d="M 152.5,53.5 C 152.917,52.8761 153.584,52.5427 154.5,52.5C 155.713,52.7472 156.38,53.4138 156.5,54.5C 155.292,53.7659 153.959,53.4326 152.5,53.5 Z"/></g>
<g><path style="opacity:0.62" fill="#ffeea7" d="M 36.5,50.5 C 34.9059,53.7642 32.5725,56.4309 29.5,58.5C 31.0941,55.2358 33.4275,52.5691 36.5,50.5 Z"/></g>
<g><path style="opacity:0.004" fill="#fffbeb" d="M 101.5,52.5 C 101.027,53.9063 100.027,54.573 98.5,54.5C 98.9731,53.0937 99.9731,52.427 101.5,52.5 Z"/></g>
<g><path style="opacity:1" fill="#fccc1d" d="M 152.5,53.5 C 153.959,53.4326 155.292,53.7659 156.5,54.5C 156.738,56.4044 157.738,57.7377 159.5,58.5C 160.08,60.7488 161.413,62.4154 163.5,63.5C 165.091,66.4309 167.091,69.0976 169.5,71.5C 151.169,89.6652 133.335,108.332 116,127.5C 111.906,132.102 107.406,136.102 102.5,139.5C 101.833,139.5 101.167,139.5 100.5,139.5C 98.7607,136.757 96.4274,134.757 93.5,133.5C 92.0892,131.086 90.0892,129.419 87.5,128.5C 86.5,128.167 85.8333,127.5 85.5,126.5C 83.8333,124.167 81.8333,122.167 79.5,120.5C 77.5,119.167 75.8333,117.5 74.5,115.5C 74.573,113.973 73.9063,112.973 72.5,112.5C 71.1667,111.5 71.1667,110.5 72.5,109.5C 76.8333,105.833 80.8333,101.833 84.5,97.5C 87.7642,95.9059 90.4309,93.5725 92.5,90.5C 95.0892,89.5806 97.0892,87.914 98.5,85.5C 100.404,85.2624 101.738,84.2624 102.5,82.5C 104.404,82.2624 105.738,81.2624 106.5,79.5C 108.027,79.573 109.027,78.9063 109.5,77.5C 111.027,77.573 112.027,76.9063 112.5,75.5C 114.027,75.573 115.027,74.9063 115.5,73.5C 117.027,73.573 118.027,72.9063 118.5,71.5C 118.842,70.6618 119.508,70.3284 120.5,70.5C 122.027,70.573 123.027,69.9063 123.5,68.5C 124.514,67.3263 125.847,66.6596 127.5,66.5C 129.027,66.573 130.027,65.9063 130.5,64.5C 133.515,62.3256 136.849,60.6589 140.5,59.5C 142.153,59.3404 143.486,58.6737 144.5,57.5C 146.849,55.659 149.515,54.3257 152.5,53.5 Z"/></g>
<g><path style="opacity:0.494" fill="#fff2c4" d="M 156.5,54.5 C 158.262,55.2623 159.262,56.5956 159.5,58.5C 157.738,57.7377 156.738,56.4044 156.5,54.5 Z"/></g>
<g><path style="opacity:0.306" fill="#fff6d5" d="M 144.5,57.5 C 143.486,58.6737 142.153,59.3404 140.5,59.5C 141.287,57.8958 142.62,57.2291 144.5,57.5 Z"/></g>
<g><path style="opacity:0.671" fill="#ffedb0" d="M 159.5,58.5 C 161.587,59.5846 162.92,61.2512 163.5,63.5C 161.413,62.4154 160.08,60.7488 159.5,58.5 Z"/></g>
<g><path style="opacity:0.569" fill="#ffeeaa" d="M 29.5,58.5 C 28.5806,61.0892 26.914,63.0892 24.5,64.5C 25.4194,61.9108 27.086,59.9108 29.5,58.5 Z"/></g>
<g><path style="opacity:0.004" fill="#fffbeb" d="M 85.5,63.5 C 85.0269,64.9063 84.0269,65.573 82.5,65.5C 82.9731,64.0937 83.9731,63.427 85.5,63.5 Z"/></g>
<g><path style="opacity:0.78" fill="#ffebad" d="M 163.5,63.5 C 166.573,65.5691 168.906,68.2358 170.5,71.5C 170.167,71.5 169.833,71.5 169.5,71.5C 167.091,69.0976 165.091,66.4309 163.5,63.5 Z"/></g>
<g><path style="opacity:0.682" fill="#ffefa9" d="M 24.5,64.5 C 24.2624,66.4044 23.2624,67.7377 21.5,68.5C 21.7376,66.5956 22.7376,65.2623 24.5,64.5 Z"/></g>
<g><path style="opacity:0.431" fill="#fff3c6" d="M 130.5,64.5 C 130.027,65.9063 129.027,66.573 127.5,66.5C 127.973,65.0937 128.973,64.427 130.5,64.5 Z"/></g>
<g><path style="opacity:0.016" fill="#fff8df" d="M 81.5,66.5 C 81.0269,67.9063 80.0269,68.573 78.5,68.5C 78.9731,67.0937 79.9731,66.427 81.5,66.5 Z"/></g>
<g><path style="opacity:0.424" fill="#fff3c8" d="M 123.5,68.5 C 123.027,69.9063 122.027,70.573 120.5,70.5C 120.973,69.0937 121.973,68.427 123.5,68.5 Z"/></g>
<g><path style="opacity:0.435" fill="#fff1b6" d="M 21.5,68.5 C 21.2624,70.4044 20.2624,71.7377 18.5,72.5C 18.7376,70.5956 19.7376,69.2623 21.5,68.5 Z"/></g>
<g><path style="opacity:1" fill="#fbcb26" d="M 169.5,71.5 C 169.833,71.5 170.167,71.5 170.5,71.5C 173.5,73.8333 176.167,76.5 178.5,79.5C 175.606,80.8823 173.106,82.8823 171,85.5C 162.96,94.0373 155.126,102.704 147.5,111.5C 146.833,111.167 146.167,110.833 145.5,110.5C 144.833,110.833 144.167,111.167 143.5,111.5C 141.413,112.585 140.08,114.251 139.5,116.5C 137.5,119.167 135.167,121.5 132.5,123.5C 130.251,124.08 128.585,125.413 127.5,127.5C 126.5,129.167 125.167,130.5 123.5,131.5C 121.973,131.427 120.973,132.094 120.5,133.5C 120.167,134.5 119.5,135.167 118.5,135.5C 116.973,135.427 115.973,136.094 115.5,137.5C 115.5,138.167 115.167,138.5 114.5,138.5C 112.973,138.427 111.973,139.094 111.5,140.5C 111.5,141.167 111.167,141.5 110.5,141.5C 108.833,142.167 107.167,142.833 105.5,143.5C 104.833,143.5 104.5,143.167 104.5,142.5C 103.833,141.5 103.167,140.5 102.5,139.5C 107.406,136.102 111.906,132.102 116,127.5C 133.335,108.332 151.169,89.6652 169.5,71.5 Z"/></g>
<g><path style="opacity:0.369" fill="#fff4cf" d="M 118.5,71.5 C 118.027,72.9063 117.027,73.573 115.5,73.5C 115.973,72.0937 116.973,71.427 118.5,71.5 Z"/></g>
<g><path style="opacity:0.024" fill="#fff8df" d="M 74.5,72.5 C 73.7377,74.2624 72.4044,75.2624 70.5,75.5C 71.2623,73.7376 72.5956,72.7376 74.5,72.5 Z"/></g>
<g><path style="opacity:0.247" fill="#fff5ca" d="M 18.5,72.5 C 18.573,74.0269 17.9063,75.0269 16.5,75.5C 16.427,73.9731 17.0937,72.9731 18.5,72.5 Z"/></g>
<g><path style="opacity:0.439" fill="#fff1c3" d="M 115.5,73.5 C 115.027,74.9063 114.027,75.573 112.5,75.5C 112.973,74.0937 113.973,73.427 115.5,73.5 Z"/></g>
<g><path style="opacity:0.459" fill="#fff1c0" d="M 112.5,75.5 C 112.027,76.9063 111.027,77.573 109.5,77.5C 109.973,76.0937 110.973,75.427 112.5,75.5 Z"/></g>
<g><path style="opacity:0.22" fill="#fff6ce" d="M 16.5,75.5 C 16.573,77.0269 15.9063,78.0269 14.5,78.5C 14.427,76.9731 15.0937,75.9731 16.5,75.5 Z"/></g>
<g><path style="opacity:0.427" fill="#fff2c4" d="M 109.5,77.5 C 109.027,78.9063 108.027,79.573 106.5,79.5C 106.973,78.0937 107.973,77.427 109.5,77.5 Z"/></g>
<g><path style="opacity:0.004" fill="#fffae5" d="M 69.5,76.5 C 67.2343,80.4356 64.2343,83.7689 60.5,86.5C 62.7657,82.5644 65.7657,79.2311 69.5,76.5 Z"/></g>
<g><path style="opacity:0.353" fill="#fff2c4" d="M 106.5,79.5 C 105.738,81.2624 104.404,82.2624 102.5,82.5C 103.262,80.7376 104.596,79.7376 106.5,79.5 Z"/></g>
<g><path style="opacity:0.22" fill="#fff5c9" d="M 13.5,80.5 C 13.573,82.0269 12.9063,83.0269 11.5,83.5C 11.427,81.9731 12.0937,80.9731 13.5,80.5 Z"/></g>
<g><path style="opacity:0.996" fill="#ffda71" d="M 178.5,79.5 C 180.167,80.5 181.5,81.8333 182.5,83.5C 179.858,83.5123 178.525,82.179 178.5,79.5 Z"/></g>
<g><path style="opacity:0.396" fill="#fff1be" d="M 102.5,82.5 C 101.738,84.2624 100.404,85.2624 98.5,85.5C 99.2623,83.7376 100.596,82.7376 102.5,82.5 Z"/></g>
<g><path style="opacity:0.004" fill="#fff8e3" d="M 182.5,83.5 C 183.833,83.5 184.5,84.1667 184.5,85.5C 183.5,85.1667 182.833,84.5 182.5,83.5 Z"/></g>
<g><path style="opacity:0.008" fill="#fff4d3" d="M 184.5,85.5 C 186.404,85.7376 187.738,86.7376 188.5,88.5C 186.596,88.2624 185.262,87.2624 184.5,85.5 Z"/></g>
<g><path style="opacity:1" fill="#fbc71b" d="M 178.5,79.5 C 178.525,82.179 179.858,83.5123 182.5,83.5C 182.833,84.5 183.5,85.1667 184.5,85.5C 185.262,87.2624 186.596,88.2624 188.5,88.5C 189.539,90.5311 191.205,91.8645 193.5,92.5C 193.5,93.8333 194.167,94.5 195.5,94.5C 195.973,95.9063 196.973,96.573 198.5,96.5C 198.833,97.5 199.5,98.1667 200.5,98.5C 196.618,104.561 192.118,110.227 187,115.5C 156.555,147.28 126.055,179.114 95.5,211C 93.8659,211.494 92.1992,211.66 90.5,211.5C 88.1815,211.008 86.1815,210.008 84.5,208.5C 83.3406,206.75 81.674,205.75 79.5,205.5C 78.5084,205.672 77.8417,205.338 77.5,204.5C 77.0269,203.094 76.0269,202.427 74.5,202.5C 74.0269,201.094 73.0269,200.427 71.5,200.5C 70.5084,200.672 69.8417,200.338 69.5,199.5C 69.0269,198.094 68.0269,197.427 66.5,197.5C 65.7377,195.738 64.4044,194.738 62.5,194.5C 62.0269,193.094 61.0269,192.427 59.5,192.5C 58.4154,190.413 56.7488,189.08 54.5,188.5C 53.4154,186.413 51.7488,185.08 49.5,184.5C 48.8333,183.5 48.1667,182.5 47.5,181.5C 57.2172,170.788 66.8838,160.121 76.5,149.5C 76.8333,149.5 77.1667,149.5 77.5,149.5C 78.8333,150.167 79.8333,151.167 80.5,152.5C 81.2623,154.262 82.5956,155.262 84.5,155.5C 85.5387,157.531 87.2054,158.864 89.5,159.5C 90.1667,159.5 90.5,159.833 90.5,160.5C 90.9731,161.906 91.9731,162.573 93.5,162.5C 93.9731,163.906 94.9731,164.573 96.5,164.5C 96.9731,165.906 97.9731,166.573 99.5,166.5C 99.9731,167.906 100.973,168.573 102.5,168.5C 103.492,168.328 104.158,168.662 104.5,169.5C 105.659,171.25 107.326,172.25 109.5,172.5C 110.167,172.5 110.833,172.5 111.5,172.5C 113.027,172.573 114.027,171.906 114.5,170.5C 116.027,170.573 117.027,169.906 117.5,168.5C 119.027,168.573 120.027,167.906 120.5,166.5C 122.404,166.262 123.738,165.262 124.5,163.5C 126.404,163.262 127.738,162.262 128.5,160.5C 130.749,159.92 132.415,158.587 133.5,156.5C 138.5,153.5 142.5,149.5 145.5,144.5C 145.833,143.5 146.5,142.833 147.5,142.5C 149.587,141.415 150.92,139.749 151.5,137.5C 153.262,136.738 154.262,135.404 154.5,133.5C 155.906,133.027 156.573,132.027 156.5,130.5C 157.906,130.027 158.573,129.027 158.5,127.5C 159.906,127.027 160.573,126.027 160.5,124.5C 161.757,123.377 161.424,122.711 159.5,122.5C 159.027,121.094 158.027,120.427 156.5,120.5C 155.415,118.413 153.749,117.08 151.5,116.5C 150.167,114.833 148.833,113.167 147.5,111.5C 155.126,102.704 162.96,94.0373 171,85.5C 173.106,82.8823 175.606,80.8823 178.5,79.5 Z"/></g>
<g><path style="opacity:0.631" fill="#ffeba6" d="M 98.5,85.5 C 97.0892,87.914 95.0892,89.5806 92.5,90.5C 93.9108,88.086 95.9108,86.4194 98.5,85.5 Z"/></g>
<g><path style="opacity:0.004" fill="#fff3d1" d="M 188.5,88.5 C 190.754,89.1237 192.421,90.457 193.5,92.5C 191.205,91.8645 189.539,90.5311 188.5,88.5 Z"/></g>
<g><path style="opacity:0.004" fill="#fff9e2" d="M 57.5,89.5 C 57.573,91.0269 56.9063,92.0269 55.5,92.5C 55.427,90.9731 56.0937,89.9731 57.5,89.5 Z"/></g>
<g><path style="opacity:0.145" fill="#fff7d4" d="M 8.5,89.5 C 8.57298,91.0269 7.90632,92.0269 6.5,92.5C 6.42702,90.9731 7.09368,89.9731 8.5,89.5 Z"/></g>
<g><path style="opacity:0.588" fill="#ffeaa2" d="M 92.5,90.5 C 90.4309,93.5725 87.7642,95.9059 84.5,97.5C 86.5691,94.4275 89.2358,92.0941 92.5,90.5 Z"/></g>
<g><path style="opacity:0.686" fill="#ffe7a2" d="M 193.5,92.5 C 194.5,92.8333 195.167,93.5 195.5,94.5C 194.167,94.5 193.5,93.8333 193.5,92.5 Z"/></g>
<g><path style="opacity:0.016" fill="#fff4d6" d="M 195.5,94.5 C 197.027,94.427 198.027,95.0937 198.5,96.5C 196.973,96.573 195.973,95.9063 195.5,94.5 Z"/></g>
<g><path style="opacity:0.008" fill="#fff8dc" d="M 53.5,94.5 C 53.573,96.0269 52.9063,97.0269 51.5,97.5C 51.427,95.9731 52.0937,94.9731 53.5,94.5 Z"/></g>
<g><path style="opacity:0.004" fill="#fff9e6" d="M 198.5,96.5 C 200.027,96.427 201.027,97.0937 201.5,98.5C 201.167,98.5 200.833,98.5 200.5,98.5C 199.5,98.1667 198.833,97.5 198.5,96.5 Z"/></g>
<g><path style="opacity:0.016" fill="#fff6d6" d="M 50.5,98.5 C 50.573,100.027 49.9063,101.027 48.5,101.5C 48.427,99.9731 49.0937,98.9731 50.5,98.5 Z"/></g>
<g><path style="opacity:1" fill="#fcc423" d="M 200.5,98.5 C 200.833,98.5 201.167,98.5 201.5,98.5C 202.035,100.446 203.368,101.446 205.5,101.5C 205.973,102.906 206.973,103.573 208.5,103.5C 209.035,105.446 210.368,106.446 212.5,106.5C 213.492,106.328 214.158,106.662 214.5,107.5C 214.973,108.906 215.973,109.573 217.5,109.5C 218.038,111.117 218.371,112.784 218.5,114.5C 215.927,121.315 212.594,127.649 208.5,133.5C 207.094,133.973 206.427,134.973 206.5,136.5C 205.89,138.434 204.89,140.101 203.5,141.5C 202.094,141.973 201.427,142.973 201.5,144.5C 200.094,144.973 199.427,145.973 199.5,147.5C 198.094,147.973 197.427,148.973 197.5,150.5C 196.974,152.23 195.974,153.564 194.5,154.5C 193.094,154.973 192.427,155.973 192.5,157.5C 192.167,158.5 191.5,159.167 190.5,159.5C 189.094,159.973 188.427,160.973 188.5,162.5C 188.167,163.5 187.5,164.167 186.5,164.5C 184.738,165.262 183.738,166.596 183.5,168.5C 182.5,170.167 181.167,171.5 179.5,172.5C 177.086,173.911 175.419,175.911 174.5,178.5C 171.5,182.167 168.167,185.5 164.5,188.5C 161.573,189.757 159.239,191.757 157.5,194.5C 156.5,196.167 155.167,197.5 153.5,198.5C 151.251,199.08 149.585,200.413 148.5,202.5C 148.167,203.5 147.5,204.167 146.5,204.5C 144.596,204.738 143.262,205.738 142.5,207.5C 142.167,208.5 141.5,209.167 140.5,209.5C 138.973,209.427 137.973,210.094 137.5,211.5C 137.167,212.5 136.5,213.167 135.5,213.5C 133.973,213.427 132.973,214.094 132.5,215.5C 130.909,217.633 128.909,219.299 126.5,220.5C 124.973,220.427 123.973,221.094 123.5,222.5C 123.5,222.833 123.5,223.167 123.5,223.5C 121.167,223.5 118.833,223.5 116.5,223.5C 116.5,223.167 116.5,222.833 116.5,222.5C 115.22,221.069 113.553,220.402 111.5,220.5C 104.094,218.293 97.0943,215.293 90.5,211.5C 92.1992,211.66 93.8659,211.494 95.5,211C 126.055,179.114 156.555,147.28 187,115.5C 192.118,110.227 196.618,104.561 200.5,98.5 Z"/></g>
<g><path style="opacity:0.008" fill="#fff1ca" d="M 201.5,98.5 C 203.23,99.0256 204.564,100.026 205.5,101.5C 203.368,101.446 202.035,100.446 201.5,98.5 Z"/></g>
<g><path style="opacity:0.004" fill="#fff8e6" d="M 205.5,101.5 C 207.027,101.427 208.027,102.094 208.5,103.5C 206.973,103.573 205.973,102.906 205.5,101.5 Z"/></g>
<g><path style="opacity:0.004" fill="#fff8dc" d="M 48.5,101.5 C 48.573,103.027 47.9063,104.027 46.5,104.5C 46.427,102.973 47.0937,101.973 48.5,101.5 Z"/></g>
<g><path style="opacity:0.365" fill="#fff3c9" d="M 84.5,97.5 C 80.8333,101.833 76.8333,105.833 72.5,109.5C 75.5,104.5 79.5,100.5 84.5,97.5 Z"/></g>
<g><path style="opacity:0.796" fill="#ffe7a7" d="M 208.5,103.5 C 210.23,104.026 211.564,105.026 212.5,106.5C 210.368,106.446 209.035,105.446 208.5,103.5 Z"/></g>
<g><path style="opacity:0.082" fill="#fff7d9" d="M 46.5,104.5 C 45.962,106.117 45.6287,107.784 45.5,109.5C 44.0698,107.545 44.4031,105.879 46.5,104.5 Z"/></g>
<g><path style="opacity:0.004" fill="#fff9ea" d="M 214.5,107.5 C 216.027,107.427 217.027,108.094 217.5,109.5C 215.973,109.573 214.973,108.906 214.5,107.5 Z"/></g>
<g><path style="opacity:0.008" fill="#fff6db" d="M 145.5,110.5 C 146.167,110.833 146.833,111.167 147.5,111.5C 148.833,113.167 150.167,114.833 151.5,116.5C 148.5,115.5 146.5,113.5 145.5,110.5 Z"/></g>
<g><path style="opacity:0.506" fill="#ffe8aa" d="M 217.5,109.5 C 218.167,109.833 218.833,110.167 219.5,110.5C 219.5,111.833 219.5,113.167 219.5,114.5C 219.167,114.5 218.833,114.5 218.5,114.5C 218.371,112.784 218.038,111.117 217.5,109.5 Z"/></g>
<g><path style="opacity:0.18" fill="#fff6d2" d="M 46.5,111.5 C 47.9063,111.973 48.573,112.973 48.5,114.5C 47.0937,114.027 46.427,113.027 46.5,111.5 Z"/></g>
<g><path style="opacity:0.016" fill="#fff6d7" d="M 72.5,112.5 C 73.9063,112.973 74.573,113.973 74.5,115.5C 73.0937,115.027 72.427,114.027 72.5,112.5 Z"/></g>
<g><path style="opacity:0.035" fill="#fff5d6" d="M 143.5,111.5 C 142.92,113.749 141.587,115.415 139.5,116.5C 140.08,114.251 141.413,112.585 143.5,111.5 Z"/></g>
<g><path style="opacity:0.263" fill="#fff3c5" d="M 49.5,116.5 C 50.9063,116.973 51.573,117.973 51.5,119.5C 50.0937,119.027 49.427,118.027 49.5,116.5 Z"/></g>
<g><path style="opacity:0.18" fill="#fff1c5" d="M 151.5,116.5 C 153.749,117.08 155.415,118.413 156.5,120.5C 154.251,119.92 152.585,118.587 151.5,116.5 Z"/></g>
<g><path style="opacity:0.286" fill="#fff2c3" d="M 51.5,119.5 C 52.9063,119.973 53.573,120.973 53.5,122.5C 52.0937,122.027 51.427,121.027 51.5,119.5 Z"/></g>
<g><path style="opacity:0.012" fill="#fff6da" d="M 79.5,120.5 C 81.8333,122.167 83.8333,124.167 85.5,126.5C 82.5,125.5 80.5,123.5 79.5,120.5 Z"/></g>
<g><path style="opacity:0.192" fill="#fff4d3" d="M 156.5,120.5 C 158.027,120.427 159.027,121.094 159.5,122.5C 157.973,122.573 156.973,121.906 156.5,120.5 Z"/></g>
<g><path style="opacity:0.431" fill="#ffecb4" d="M 159.5,122.5 C 161.424,122.711 161.757,123.377 160.5,124.5C 160.167,123.833 159.833,123.167 159.5,122.5 Z"/></g>
<g><path style="opacity:0.38" fill="#ffefb5" d="M 53.5,122.5 C 54.9063,122.973 55.573,123.973 55.5,125.5C 54.0937,125.027 53.427,124.027 53.5,122.5 Z"/></g>
<g><path style="opacity:0.008" fill="#fff8e2" d="M 132.5,123.5 C 131.415,125.587 129.749,126.92 127.5,127.5C 128.585,125.413 130.251,124.08 132.5,123.5 Z"/></g>
<g><path style="opacity:0.282" fill="#ffefc2" d="M 160.5,124.5 C 160.573,126.027 159.906,127.027 158.5,127.5C 158.427,125.973 159.094,124.973 160.5,124.5 Z"/></g>
<g><path style="opacity:1" fill="#fccd1a" d="M 55.5,127.5 C 56.8333,128.5 58.1667,129.5 59.5,130.5C 60.0798,132.749 61.4131,134.415 63.5,135.5C 64.5,135.833 65.1667,136.5 65.5,137.5C 68.4357,142.105 72.1024,146.105 76.5,149.5C 66.8838,160.121 57.2172,170.788 47.5,181.5C 45.7541,179.748 43.7541,178.415 41.5,177.5C 39.8333,176.5 38.5,175.167 37.5,173.5C 37.5123,170.858 36.179,169.525 33.5,169.5C 32.9202,167.251 31.5869,165.585 29.5,164.5C 28.8333,164.5 28.5,164.167 28.5,163.5C 28.5,162.167 27.8333,161.5 26.5,161.5C 26.573,159.973 25.9063,158.973 24.5,158.5C 23.8333,158.5 23.5,158.167 23.5,157.5C 24.552,157.649 25.552,157.483 26.5,157C 35.6721,146.661 45.3388,136.828 55.5,127.5 Z"/></g>
<g><path style="opacity:0.663" fill="#ffeeb5" d="M 87.5,128.5 C 90.0892,129.419 92.0892,131.086 93.5,133.5C 90.9108,132.581 88.9108,130.914 87.5,128.5 Z"/></g>
<g><path style="opacity:0.267" fill="#fff0bb" d="M 55.5,125.5 C 57.5869,126.585 58.9202,128.251 59.5,130.5C 58.1667,129.5 56.8333,128.5 55.5,127.5C 55.5,126.833 55.5,126.167 55.5,125.5 Z"/></g>
<g><path style="opacity:0.263" fill="#fff1c7" d="M 158.5,127.5 C 158.573,129.027 157.906,130.027 156.5,130.5C 156.427,128.973 157.094,127.973 158.5,127.5 Z"/></g>
<g><path style="opacity:0.678" fill="#ffedb0" d="M 59.5,130.5 C 61.5869,131.585 62.9202,133.251 63.5,135.5C 61.4131,134.415 60.0798,132.749 59.5,130.5 Z"/></g>
<g><path style="opacity:0.008" fill="#fff9e6" d="M 123.5,131.5 C 123.027,132.906 122.027,133.573 120.5,133.5C 120.973,132.094 121.973,131.427 123.5,131.5 Z"/></g>
<g><path style="opacity:0.31" fill="#ffefc0" d="M 156.5,130.5 C 156.573,132.027 155.906,133.027 154.5,133.5C 154.427,131.973 155.094,130.973 156.5,130.5 Z"/></g>
<g><path style="opacity:0.443" fill="#ffecb5" d="M 154.5,133.5 C 154.262,135.404 153.262,136.738 151.5,137.5C 151.738,135.596 152.738,134.262 154.5,133.5 Z"/></g>
<g><path style="opacity:0.094" fill="#fff4d8" d="M 208.5,133.5 C 208.573,135.027 207.906,136.027 206.5,136.5C 206.427,134.973 207.094,133.973 208.5,133.5 Z"/></g>
<g><path style="opacity:0.008" fill="#fff8e5" d="M 118.5,135.5 C 118.027,136.906 117.027,137.573 115.5,137.5C 115.973,136.094 116.973,135.427 118.5,135.5 Z"/></g>
<g><path style="opacity:0.259" fill="#fff0c1" d="M 93.5,133.5 C 96.4274,134.757 98.7607,136.757 100.5,139.5C 97.5726,138.243 95.2393,136.243 93.5,133.5 Z"/></g>
<g><path style="opacity:0.69" fill="#ffeeb4" d="M 65.5,137.5 C 69.8333,141.167 73.8333,145.167 77.5,149.5C 77.1667,149.5 76.8333,149.5 76.5,149.5C 72.1024,146.105 68.4357,142.105 65.5,137.5 Z"/></g>
<g><path style="opacity:0.553" fill="#ffefbb" d="M 100.5,139.5 C 101.167,139.5 101.833,139.5 102.5,139.5C 103.167,140.5 103.833,141.5 104.5,142.5C 102.596,142.262 101.262,141.262 100.5,139.5 Z"/></g>
<g><path style="opacity:0.016" fill="#fff7de" d="M 114.5,138.5 C 114.027,139.906 113.027,140.573 111.5,140.5C 111.973,139.094 112.973,138.427 114.5,138.5 Z"/></g>
<g><path style="opacity:0.396" fill="#ffedbc" d="M 151.5,137.5 C 150.92,139.749 149.587,141.415 147.5,142.5C 148.08,140.251 149.413,138.585 151.5,137.5 Z"/></g>
<g><path style="opacity:0.012" fill="#fff8e4" d="M 110.5,141.5 C 109.409,144.192 107.743,144.858 105.5,143.5C 107.167,142.833 108.833,142.167 110.5,141.5 Z"/></g>
<g><path style="opacity:0.086" fill="#fff4d6" d="M 203.5,141.5 C 203.573,143.027 202.906,144.027 201.5,144.5C 201.427,142.973 202.094,141.973 203.5,141.5 Z"/></g>
<g><path style="opacity:0.008" fill="#fff2c4" d="M 12.5,141.5 C 14.7964,142.733 16.1298,144.733 16.5,147.5C 14.684,145.882 13.3507,143.882 12.5,141.5 Z"/></g>
<g><path style="opacity:0.012" fill="#fff4d8" d="M 201.5,144.5 C 201.573,146.027 200.906,147.027 199.5,147.5C 199.427,145.973 200.094,144.973 201.5,144.5 Z"/></g>
<g><path style="opacity:0.565" fill="#ffe7a2" d="M 145.5,144.5 C 142.5,149.5 138.5,153.5 133.5,156.5C 137.167,152.167 141.167,148.167 145.5,144.5 Z"/></g>
<g><path style="opacity:0.008" fill="#fff7db" d="M 16.5,147.5 C 17.9063,147.973 18.573,148.973 18.5,150.5C 17.0937,150.027 16.427,149.027 16.5,147.5 Z"/></g>
<g><path style="opacity:0.008" fill="#fff5dd" d="M 199.5,147.5 C 199.573,149.027 198.906,150.027 197.5,150.5C 197.427,148.973 198.094,147.973 199.5,147.5 Z"/></g>
<g><path style="opacity:0.875" fill="#ffe898" d="M 18.5,150.5 C 20.4456,151.035 21.4456,152.368 21.5,154.5C 20.0256,153.564 19.0256,152.23 18.5,150.5 Z"/></g>
<g><path style="opacity:0.004" fill="#fff5d6" d="M 80.5,152.5 C 82.4044,152.738 83.7377,153.738 84.5,155.5C 82.5956,155.262 81.2623,154.262 80.5,152.5 Z"/></g>
<g><path style="opacity:0.02" fill="#fff6d5" d="M 21.5,154.5 C 22.9063,154.973 23.573,155.973 23.5,157.5C 22.0937,157.027 21.427,156.027 21.5,154.5 Z"/></g>
<g><path style="opacity:0.004" fill="#fff7e2" d="M 194.5,154.5 C 194.573,156.027 193.906,157.027 192.5,157.5C 192.427,155.973 193.094,154.973 194.5,154.5 Z"/></g>
<g><path style="opacity:0.004" fill="#fff2cb" d="M 84.5,155.5 C 86.754,156.124 88.4206,157.457 89.5,159.5C 87.2054,158.864 85.5387,157.531 84.5,155.5 Z"/></g>
<g><path style="opacity:0.008" fill="#fff7dd" d="M 24.5,158.5 C 25.9063,158.973 26.573,159.973 26.5,161.5C 25.0937,161.027 24.427,160.027 24.5,158.5 Z"/></g>
<g><path style="opacity:0.624" fill="#ffeaad" d="M 133.5,156.5 C 132.415,158.587 130.749,159.92 128.5,160.5C 129.585,158.413 131.251,157.08 133.5,156.5 Z"/></g>
<g><path style="opacity:0.012" fill="#fff5d7" d="M 90.5,160.5 C 92.0269,160.427 93.0269,161.094 93.5,162.5C 91.9731,162.573 90.9731,161.906 90.5,160.5 Z"/></g>
<g><path style="opacity:0.016" fill="#fff4d7" d="M 190.5,159.5 C 190.573,161.027 189.906,162.027 188.5,162.5C 188.427,160.973 189.094,159.973 190.5,159.5 Z"/></g>
<g><path style="opacity:0.667" fill="#ffeba7" d="M 26.5,161.5 C 27.8333,161.5 28.5,162.167 28.5,163.5C 27.5,163.167 26.8333,162.5 26.5,161.5 Z"/></g>
<g><path style="opacity:0.365" fill="#ffefc3" d="M 128.5,160.5 C 127.738,162.262 126.404,163.262 124.5,163.5C 125.262,161.738 126.596,160.738 128.5,160.5 Z"/></g>
<g><path style="opacity:0.008" fill="#fff8e2" d="M 93.5,162.5 C 95.0269,162.427 96.0269,163.094 96.5,164.5C 94.9731,164.573 93.9731,163.906 93.5,162.5 Z"/></g>
<g><path style="opacity:0.004" fill="#fff8e4" d="M 96.5,164.5 C 98.0269,164.427 99.0269,165.094 99.5,166.5C 97.9731,166.573 96.9731,165.906 96.5,164.5 Z"/></g>
<g><path style="opacity:0.384" fill="#ffeebe" d="M 124.5,163.5 C 123.738,165.262 122.404,166.262 120.5,166.5C 121.262,164.738 122.596,163.738 124.5,163.5 Z"/></g>
<g><path style="opacity:0.012" fill="#fff4d0" d="M 29.5,164.5 C 31.5869,165.585 32.9202,167.251 33.5,169.5C 31.4131,168.415 30.0798,166.749 29.5,164.5 Z"/></g>
<g><path style="opacity:0.008" fill="#fff5db" d="M 186.5,164.5 C 186.262,166.404 185.262,167.738 183.5,168.5C 183.738,166.596 184.738,165.262 186.5,164.5 Z"/></g>
<g><path style="opacity:0.071" fill="#fff6dd" d="M 99.5,166.5 C 101.027,166.427 102.027,167.094 102.5,168.5C 100.973,168.573 99.9731,167.906 99.5,166.5 Z"/></g>
<g><path style="opacity:0.514" fill="#ffecb5" d="M 120.5,166.5 C 120.027,167.906 119.027,168.573 117.5,168.5C 117.973,167.094 118.973,166.427 120.5,166.5 Z"/></g>
<g><path style="opacity:0.482" fill="#ffeebb" d="M 117.5,168.5 C 117.027,169.906 116.027,170.573 114.5,170.5C 114.973,169.094 115.973,168.427 117.5,168.5 Z"/></g>
<g><path style="opacity:0.992" fill="#ffdf7a" d="M 33.5,169.5 C 36.179,169.525 37.5123,170.858 37.5,173.5C 35.8333,172.5 34.5,171.167 33.5,169.5 Z"/></g>
<g><path style="opacity:0.102" fill="#fff6db" d="M 104.5,169.5 C 106.674,169.75 108.341,170.75 109.5,172.5C 107.326,172.25 105.659,171.25 104.5,169.5 Z"/></g>
<g><path style="opacity:0.529" fill="#ffecb3" d="M 114.5,170.5 C 114.027,171.906 113.027,172.573 111.5,172.5C 111.973,171.094 112.973,170.427 114.5,170.5 Z"/></g>
<g><path style="opacity:0.027" fill="#fff4d8" d="M 179.5,172.5 C 178.581,175.089 176.914,177.089 174.5,178.5C 175.419,175.911 177.086,173.911 179.5,172.5 Z"/></g>
<g><path style="opacity:0.627" fill="#fff0be" d="M 41.5,177.5 C 43.7541,178.415 45.7541,179.748 47.5,181.5C 48.1667,182.5 48.8333,183.5 49.5,184.5C 46.2358,182.906 43.5691,180.573 41.5,177.5 Z"/></g>
<g><path style="opacity:0.659" fill="#ffedb4" d="M 49.5,184.5 C 51.7488,185.08 53.4154,186.413 54.5,188.5C 52.2512,187.92 50.5846,186.587 49.5,184.5 Z"/></g>
<g><path style="opacity:0.192" fill="#fff1c5" d="M 54.5,188.5 C 56.7488,189.08 58.4154,190.413 59.5,192.5C 57.2512,191.92 55.5846,190.587 54.5,188.5 Z"/></g>
<g><path style="opacity:0.016" fill="#fff6dd" d="M 164.5,188.5 C 162.761,191.243 160.427,193.243 157.5,194.5C 159.239,191.757 161.573,189.757 164.5,188.5 Z"/></g>
<g><path style="opacity:0.294" fill="#fff1c4" d="M 59.5,192.5 C 61.0269,192.427 62.0269,193.094 62.5,194.5C 60.9731,194.573 59.9731,193.906 59.5,192.5 Z"/></g>
<g><path style="opacity:0.369" fill="#fff0c1" d="M 62.5,194.5 C 64.4044,194.738 65.7377,195.738 66.5,197.5C 64.5956,197.262 63.2623,196.262 62.5,194.5 Z"/></g>
<g><path style="opacity:0.169" fill="#fef5d8" d="M 66.5,197.5 C 68.0269,197.427 69.0269,198.094 69.5,199.5C 67.9731,199.573 66.9731,198.906 66.5,197.5 Z"/></g>
<g><path style="opacity:0.263" fill="#fff0c3" d="M 71.5,200.5 C 73.0269,200.427 74.0269,201.094 74.5,202.5C 72.9731,202.573 71.9731,201.906 71.5,200.5 Z"/></g>
<g><path style="opacity:0.004" fill="#fff8e7" d="M 153.5,198.5 C 152.415,200.587 150.749,201.92 148.5,202.5C 149.585,200.413 151.251,199.08 153.5,198.5 Z"/></g>
<g><path style="opacity:0.141" fill="#fff6da" d="M 74.5,202.5 C 76.0269,202.427 77.0269,203.094 77.5,204.5C 75.9731,204.573 74.9731,203.906 74.5,202.5 Z"/></g>
<g><path style="opacity:0.016" fill="#fff7e3" d="M 146.5,204.5 C 145.738,206.262 144.404,207.262 142.5,207.5C 143.262,205.738 144.596,204.738 146.5,204.5 Z"/></g>
<g><path style="opacity:0.086" fill="#fff6dc" d="M 79.5,205.5 C 81.674,205.75 83.3406,206.75 84.5,208.5C 82.326,208.25 80.6594,207.25 79.5,205.5 Z"/></g>
<g><path style="opacity:0.008" fill="#fff8e4" d="M 140.5,209.5 C 140.027,210.906 139.027,211.573 137.5,211.5C 137.973,210.094 138.973,209.427 140.5,209.5 Z"/></g>
<g><path style="opacity:0.008" fill="#fff8e4" d="M 135.5,213.5 C 135.027,214.906 134.027,215.573 132.5,215.5C 132.973,214.094 133.973,213.427 135.5,213.5 Z"/></g>
<g><path style="opacity:0.035" fill="#fff8e7" d="M 111.5,220.5 C 113.553,220.402 115.22,221.069 116.5,222.5C 114.447,222.598 112.78,221.931 111.5,220.5 Z"/></g>
<g><path style="opacity:0.008" fill="#fff8e6" d="M 126.5,220.5 C 126.027,221.906 125.027,222.573 123.5,222.5C 123.973,221.094 124.973,220.427 126.5,220.5 Z"/></g>
</svg>
